<?xml version="1.0" encoding="iso-8859-1"?>
<!-- Generator: Adobe Illustrator 17.1.0, SVG Export Plug-In . SVG Version: 6.00 Build 0)  -->
<!DOCTYPE svg PUBLIC "-//W3C//DTD SVG 1.0//EN" "http://www.w3.org/TR/2001/REC-SVG-20010904/DTD/svg10.dtd">
<svg version="1.0" xmlns="http://www.w3.org/2000/svg" xmlns:xlink="http://www.w3.org/1999/xlink" x="0px" y="0px" width="110px"
	 height="110px" viewBox="0 0 110 110" style="enable-background:new 0 0 110 110;" xml:space="preserve">
<g id="Artboard" style="display:none;">
	
		<rect x="-805.5" y="-405.5" style="display:inline;fill:#808080;stroke:#000000;stroke-miterlimit:10;" width="1335" height="954"/>
</g>
<g id="R-Multicolor" style="display:none;">
	<circle style="display:inline;fill:#32BEA6;" cx="55" cy="55" r="55"/>
	<g style="display:inline;">
		<g>
			<path style="fill:#3E3E3F;" d="M34,63c10,0,12,9,29,9c0-5,4-9,11-9s13,9,13,9c0-9.122-3-27-21.544-27H53.708
				c-1.636,0-3.106,0.996-3.714,2.514L47,55H31c-3.86,0-5,4-7,17C24.91,71.742,32.901,63,34,63z"/>
		</g>
		<path style="fill:#5B5C5F;" d="M34,63c10,0,12,9,29,9c0-5,4-9,11-9c0.245,0,0.486,0.035,0.728,0.057
			C70.956,61.038,59.779,59,30,59c-1.279,0-2.394,0.071-3.395,0.189c-0.76,2.188-1.405,5.365-2.129,9.808
			C26.021,65.998,29.002,63,34,63z"/>
		<g>
			<path style="fill:#FFFFFF;" d="M23.224,72.677c-0.095,0.58,0.07,1.171,0.45,1.619S24.613,75,25.2,75H84c1.657,0,3-1.343,3-3
				c0,0-6-9-13-9s-11,4-11,9c-17,0-19-9-29-9C26.819,63,23.795,69.188,23.224,72.677z"/>
		</g>
		<g>
			<circle style="fill:#3E3E3F;" cx="34" cy="73" r="6"/>
		</g>
		<g>
			<circle style="fill:#CFD3D4;" cx="34" cy="73" r="2"/>
		</g>
		<g>
			<circle style="fill:#3E3E3F;" cx="73" cy="73" r="6"/>
		</g>
		<g>
			<circle style="fill:#CFD3D4;" cx="73" cy="73" r="2"/>
		</g>
		<g>
			<path style="fill:#40C9E7;" d="M67,48.083C66.47,48.032,65.936,48,65.398,48H53.754c-0.446,0-0.839,0.296-0.961,0.725l-1.429,5
				c-0.086,0.302-0.026,0.626,0.163,0.877C51.716,54.853,52.012,55,52.326,55H67V48.083z"/>
		</g>
		<g>
			<path style="fill:#40C9E7;" d="M77.626,53.318c-1.837-1.971-4.119-3.438-6.626-4.332V55h5.894c0.398,0,0.758-0.236,0.917-0.601
				C77.97,54.034,77.897,53.61,77.626,53.318z"/>
		</g>
		<g>
			<path style="fill:#3E3E3F;" d="M26.198,57h-2v6h2c1.657,0,3-1.343,3-3S27.855,57,26.198,57z"/>
		</g>
		<g>
			<rect x="23.198" y="57" style="fill:#5B5C5F;" width="1" height="6"/>
		</g>
		<g>
			<path style="fill:#6FDAF1;" d="M53.754,48c-0.447,0-0.839,0.296-0.962,0.725l-1.428,5c-0.086,0.302-0.026,0.626,0.163,0.877
				S52.012,55,52.326,55h2.073l7-7H53.754z"/>
		</g>
	</g>
</g>
<g id="Multicolor" style="display:none;">
	<g style="display:inline;">
		<g>
			<path style="fill:#3E3E3F;" d="M34,63c10,0,12,9,29,9c0-5,4-9,11-9s13,9,13,9c0-9.122-3-27-21.544-27H53.708
				c-1.636,0-3.106,0.996-3.714,2.514L47,55H31c-3.86,0-5,4-7,17C24.91,71.742,32.901,63,34,63z"/>
		</g>
		<path style="fill:#5B5C5F;" d="M34,63c10,0,12,9,29,9c0-5,4-9,11-9c0.245,0,0.486,0.035,0.728,0.057
			C70.956,61.038,59.779,59,30,59c-1.279,0-2.394,0.071-3.395,0.189c-0.76,2.188-1.405,5.365-2.129,9.808
			C26.021,65.998,29.002,63,34,63z"/>
		<g>
			<path style="fill:#FFFFFF;" d="M23.224,72.677c-0.095,0.58,0.07,1.171,0.45,1.619S24.613,75,25.2,75H84c1.657,0,3-1.343,3-3
				c0,0-6-9-13-9s-11,4-11,9c-17,0-19-9-29-9C26.819,63,23.795,69.188,23.224,72.677z"/>
		</g>
		<g>
			<circle style="fill:#3E3E3F;" cx="34" cy="73" r="6"/>
		</g>
		<g>
			<circle style="fill:#CFD3D4;" cx="34" cy="73" r="2"/>
		</g>
		<g>
			<circle style="fill:#3E3E3F;" cx="73" cy="73" r="6"/>
		</g>
		<g>
			<circle style="fill:#CFD3D4;" cx="73" cy="73" r="2"/>
		</g>
		<g>
			<path style="fill:#40C9E7;" d="M67,48.083C66.47,48.032,65.936,48,65.398,48H53.754c-0.446,0-0.839,0.296-0.961,0.725l-1.429,5
				c-0.086,0.302-0.026,0.626,0.163,0.877C51.716,54.853,52.012,55,52.326,55H67V48.083z"/>
		</g>
		<g>
			<path style="fill:#40C9E7;" d="M77.626,53.318c-1.837-1.971-4.119-3.438-6.626-4.332V55h5.894c0.398,0,0.758-0.236,0.917-0.601
				C77.97,54.034,77.897,53.61,77.626,53.318z"/>
		</g>
		<g>
			<path style="fill:#3E3E3F;" d="M26.198,57h-2v6h2c1.657,0,3-1.343,3-3S27.855,57,26.198,57z"/>
		</g>
		<g>
			<rect x="23.198" y="57" style="fill:#5B5C5F;" width="1" height="6"/>
		</g>
		<g>
			<path style="fill:#6FDAF1;" d="M53.754,48c-0.447,0-0.839,0.296-0.962,0.725l-1.428,5c-0.086,0.302-0.026,0.626,0.163,0.877
				S52.012,55,52.326,55h2.073l7-7H53.754z"/>
		</g>
	</g>
</g>
<g id="Blue" style="display:none;">
	<g style="display:inline;">
		<g>
			<path style="fill:#0C333D;" d="M34,63c10,0,12,9,29,9c0-5,4-9,11-9s13,9,13,9c0-9.122-3-27-21.544-27H53.708
				c-1.636,0-3.106,0.996-3.714,2.515L47,55H31c-3.859,0-5,4-7,17C24.91,71.742,32.9,63,34,63z"/>
		</g>
		<path style="fill:#0F6175;" d="M34,63c10,0,12,9,29,9c0-5,4-9,11-9c0.245,0,0.486,0.035,0.729,0.057
			C70.956,61.038,59.778,59,30,59c-1.278,0-2.394,0.071-3.394,0.189c-0.761,2.188-1.404,5.365-2.129,9.808
			C26.021,65.998,29.002,63,34,63z"/>
		<g>
			<path style="fill:#FFFFFF;" d="M23.223,72.677c-0.095,0.579,0.07,1.171,0.451,1.619C24.054,74.743,24.613,75,25.2,75H84
				c1.657,0,3-1.343,3-3c0,0-6-9-13-9s-11,4-11,9c-17,0-19-9-29-9C26.819,63,23.795,69.188,23.223,72.677z"/>
		</g>
		<g>
			<circle style="fill:#0C333D;" cx="34" cy="73" r="6"/>
		</g>
		<g>
			<circle style="fill:#BBE7F2;" cx="34" cy="73" r="2"/>
		</g>
		<g>
			<circle style="fill:#0C333D;" cx="73" cy="73" r="6"/>
		</g>
		<g>
			<circle style="fill:#BBE7F2;" cx="73" cy="73" r="2"/>
		</g>
		<g>
			<path style="fill:#009FC7;" d="M67,48.083C66.469,48.032,65.935,48,65.397,48H53.754c-0.446,0-0.839,0.296-0.961,0.726l-1.429,5
				c-0.086,0.301-0.026,0.626,0.163,0.877C51.717,54.853,52.011,55,52.326,55H67V48.083z"/>
		</g>
		<g>
			<path style="fill:#009FC7;" d="M77.626,53.318c-1.837-1.971-4.119-3.438-6.626-4.332V55h5.894c0.398,0,0.759-0.236,0.917-0.601
				C77.969,54.034,77.896,53.61,77.626,53.318z"/>
		</g>
		<g>
			<path style="fill:#0C333D;" d="M26.197,57h-2v6h2c1.657,0,3-1.343,3-3S27.854,57,26.197,57z"/>
		</g>
		<g>
			<rect x="23.197" y="57" style="fill:#0F6175;" width="1" height="6"/>
		</g>
		<g>
			<path style="fill:#00B7E5;" d="M53.754,48c-0.446,0-0.838,0.296-0.961,0.725l-1.429,5c-0.086,0.302-0.026,0.626,0.163,0.877
				C51.717,54.853,52.011,55,52.326,55h2.072l7-7H53.754z"/>
		</g>
	</g>
</g>
<g id="R-Blue" style="display:none;">
	<circle style="display:inline;fill:#81D2EB;" cx="55" cy="55" r="55"/>
	<g style="display:inline;">
		<g>
			<path style="fill:#0C333D;" d="M34,63c10,0,12,9,29,9c0-5,4-9,11-9s13,9,13,9c0-9.122-3-27-21.544-27H53.708
				c-1.636,0-3.106,0.996-3.714,2.515L47,55H31c-3.859,0-5,4-7,17C24.91,71.742,32.9,63,34,63z"/>
		</g>
		<path style="fill:#0F6175;" d="M34,63c10,0,12,9,29,9c0-5,4-9,11-9c0.245,0,0.486,0.035,0.729,0.057
			C70.956,61.038,59.778,59,30,59c-1.278,0-2.394,0.071-3.394,0.189c-0.761,2.188-1.404,5.365-2.129,9.808
			C26.022,65.998,29.002,63,34,63z"/>
		<g>
			<path style="fill:#FFFFFF;" d="M23.224,72.677c-0.095,0.579,0.07,1.171,0.451,1.619C24.055,74.743,24.613,75,25.2,75H84
				c1.657,0,3-1.343,3-3c0,0-6-9-13-9s-11,4-11,9c-17,0-19-9-29-9C26.819,63,23.795,69.188,23.224,72.677z"/>
		</g>
		<g>
			<circle style="fill:#0C333D;" cx="34" cy="73" r="6"/>
		</g>
		<g>
			<circle style="fill:#BBE7F2;" cx="34" cy="73" r="2"/>
		</g>
		<g>
			<circle style="fill:#0C333D;" cx="73" cy="73" r="6"/>
		</g>
		<g>
			<circle style="fill:#BBE7F2;" cx="73" cy="73" r="2"/>
		</g>
		<g>
			<path style="fill:#009FC7;" d="M67,48.083C66.47,48.032,65.936,48,65.397,48H53.754c-0.446,0-0.839,0.296-0.961,0.726l-1.429,5
				c-0.086,0.301-0.026,0.626,0.163,0.877C51.717,54.853,52.012,55,52.326,55H67V48.083z"/>
		</g>
		<g>
			<path style="fill:#009FC7;" d="M77.626,53.318c-1.837-1.971-4.119-3.438-6.626-4.332V55h5.894c0.398,0,0.759-0.236,0.917-0.601
				C77.97,54.034,77.896,53.61,77.626,53.318z"/>
		</g>
		<g>
			<path style="fill:#0C333D;" d="M26.197,57h-2v6h2c1.657,0,3-1.343,3-3S27.854,57,26.197,57z"/>
		</g>
		<g>
			<rect x="23.197" y="57" style="fill:#0F6175;" width="1" height="6"/>
		</g>
		<g>
			<path style="fill:#00B7E5;" d="M53.754,48c-0.446,0-0.838,0.296-0.961,0.725l-1.429,5c-0.086,0.302-0.026,0.626,0.163,0.877
				C51.717,54.852,52.012,55,52.326,55h2.072l7-7H53.754z"/>
		</g>
	</g>
</g>
<g id="Green" style="display:none;">
	<g style="display:inline;">
		<g>
			<path style="fill:#0A3631;" d="M34,63c10,0,12,9,29,9c0-5,4-9,11-9s13,9,13,9c0-9.122-3-27-21.544-27H53.708
				c-1.636,0-3.106,0.996-3.714,2.515L47,55H31c-3.859,0-5,4-7,17C24.91,71.742,32.9,63,34,63z"/>
		</g>
		<path style="fill:#14635B;" d="M34,63c10,0,12,9,29,9c0-5,4-9,11-9c0.245,0,0.486,0.035,0.729,0.057
			C70.956,61.038,59.778,59,30,59c-1.278,0-2.395,0.071-3.395,0.189c-0.761,2.188-1.404,5.365-2.129,9.808
			C26.021,65.998,29.002,63,34,63z"/>
		<g>
			<path style="fill:#FFFFFF;" d="M23.223,72.677c-0.095,0.579,0.07,1.171,0.451,1.619C24.055,74.743,24.613,75,25.2,75H84
				c1.657,0,3-1.343,3-3c0,0-6-9-13-9s-11,4-11,9c-17,0-19-9-29-9C26.819,63,23.795,69.188,23.223,72.677z"/>
		</g>
		<g>
			<circle style="fill:#0A3631;" cx="34" cy="73" r="6"/>
		</g>
		<g>
			<circle style="fill:#AAF0E9;" cx="34" cy="73" r="2"/>
		</g>
		<g>
			<circle style="fill:#0A3631;" cx="73" cy="73" r="6"/>
		</g>
		<g>
			<circle style="fill:#AAF0E9;" cx="73" cy="73" r="2"/>
		</g>
		<g>
			<path style="fill:#00B8A5;" d="M67,48.083C66.469,48.032,65.935,48,65.397,48H53.754c-0.446,0-0.839,0.296-0.961,0.726l-1.429,5
				c-0.086,0.301-0.026,0.626,0.163,0.877C51.717,54.853,52.012,55,52.326,55H67V48.083z"/>
		</g>
		<g>
			<path style="fill:#00B8A5;" d="M77.626,53.318c-1.837-1.971-4.119-3.438-6.626-4.332V55h5.894c0.398,0,0.759-0.236,0.917-0.601
				C77.969,54.034,77.896,53.61,77.626,53.318z"/>
		</g>
		<g>
			<path style="fill:#0A3631;" d="M26.197,57h-2v6h2c1.657,0,3-1.343,3-3S27.854,57,26.197,57z"/>
		</g>
		<g>
			<rect x="23.197" y="57" style="fill:#14635B;" width="1" height="6"/>
		</g>
		<g>
			<path style="fill:#00D6C1;" d="M53.754,48c-0.446,0-0.838,0.296-0.961,0.725l-1.429,5c-0.086,0.302-0.026,0.626,0.163,0.877
				C51.717,54.853,52.012,55,52.326,55h2.072l7-7H53.754z"/>
		</g>
	</g>
</g>
<g id="R-Green" style="display:none;">
	<circle style="display:inline;fill:#77E0C4;" cx="55" cy="55" r="55"/>
	<g style="display:inline;">
		<g>
			<path style="fill:#0A3631;" d="M34,63c10,0,12,9,29,9c0-5,4-9,11-9s13,9,13,9c0-9.122-3-27-21.544-27H53.708
				c-1.636,0-3.106,0.996-3.714,2.515L47,55H31c-3.859,0-5,4-7,17C24.91,71.742,32.9,63,34,63z"/>
		</g>
		<path style="fill:#14635B;" d="M34,63c10,0,12,9,29,9c0-5,4-9,11-9c0.245,0,0.486,0.035,0.729,0.057
			C70.956,61.038,59.778,59,30,59c-1.278,0-2.395,0.071-3.395,0.189c-0.761,2.188-1.404,5.365-2.129,9.808
			C26.021,65.998,29.002,63,34,63z"/>
		<g>
			<path style="fill:#FFFFFF;" d="M23.224,72.677c-0.095,0.579,0.07,1.171,0.451,1.619C24.055,74.743,24.613,75,25.2,75H84
				c1.657,0,3-1.343,3-3c0,0-6-9-13-9s-11,4-11,9c-17,0-19-9-29-9C26.819,63,23.795,69.188,23.224,72.677z"/>
		</g>
		<g>
			<circle style="fill:#0A3631;" cx="34" cy="73" r="6"/>
		</g>
		<g>
			<circle style="fill:#AAF0E9;" cx="34" cy="73" r="2"/>
		</g>
		<g>
			<circle style="fill:#0A3631;" cx="73" cy="73" r="6"/>
		</g>
		<g>
			<circle style="fill:#AAF0E9;" cx="73" cy="73" r="2"/>
		</g>
		<g>
			<path style="fill:#00B8A5;" d="M67,48.083C66.47,48.032,65.936,48,65.397,48H53.754c-0.446,0-0.839,0.296-0.961,0.726l-1.429,5
				c-0.086,0.301-0.026,0.626,0.163,0.877C51.717,54.853,52.012,55,52.326,55H67V48.083z"/>
		</g>
		<g>
			<path style="fill:#00B8A5;" d="M77.626,53.318c-1.837-1.971-4.119-3.439-6.626-4.332V55h5.894c0.398,0,0.759-0.236,0.917-0.601
				C77.97,54.034,77.896,53.61,77.626,53.318z"/>
		</g>
		<g>
			<path style="fill:#0A3631;" d="M26.197,57h-2v6h2c1.657,0,3-1.343,3-3S27.854,57,26.197,57z"/>
		</g>
		<g>
			<rect x="23.197" y="57" style="fill:#14635B;" width="1" height="6"/>
		</g>
		<g>
			<path style="fill:#00D6C1;" d="M53.754,48c-0.446,0-0.838,0.296-0.961,0.725l-1.429,5c-0.086,0.302-0.026,0.627,0.163,0.877
				C51.717,54.853,52.012,55,52.326,55h2.072l7-7H53.754z"/>
		</g>
	</g>
</g>
<g id="Red" style="display:none;">
	<g style="display:inline;">
		<g>
			<path style="fill:#4A1410;" d="M34,63c10,0,12,9,29,9c0-5,4-9,11-9s13,9,13,9c0-9.122-3-27-21.544-27H53.708
				c-1.636,0-3.106,0.996-3.714,2.515L47,55H31c-3.859,0-5,4-7,17C24.91,71.742,32.9,63,34,63z"/>
		</g>
		<path style="fill:#7D261E;" d="M34,63c10,0,12,9,29,9c0-5,4-9,11-9c0.245,0,0.486,0.035,0.729,0.057
			C70.956,61.038,59.778,59,30,59c-1.278,0-2.394,0.071-3.394,0.189c-0.761,2.188-1.404,5.365-2.129,9.808
			C26.021,65.998,29.002,63,34,63z"/>
		<g>
			<path style="fill:#FFFFFF;" d="M23.223,72.677c-0.095,0.579,0.07,1.171,0.451,1.619C24.055,74.743,24.613,75,25.2,75H84
				c1.657,0,3-1.343,3-3c0,0-6-9-13-9s-11,4-11,9c-17,0-19-9-29-9C26.819,63,23.795,69.188,23.223,72.677z"/>
		</g>
		<g>
			<circle style="fill:#4A1410;" cx="34" cy="73" r="6"/>
		</g>
		<g>
			<circle style="fill:#FFD7D4;" cx="34" cy="73" r="2"/>
		</g>
		<g>
			<circle style="fill:#4A1410;" cx="73" cy="73" r="6"/>
		</g>
		<g>
			<circle style="fill:#FFD7D4;" cx="73" cy="73" r="2"/>
		</g>
		<g>
			<path style="fill:#E54B44;" d="M67,48.083C66.469,48.032,65.935,48,65.397,48H53.754c-0.446,0-0.839,0.296-0.961,0.726l-1.429,5
				c-0.086,0.301-0.026,0.626,0.163,0.877C51.717,54.853,52.012,55,52.326,55H67V48.083z"/>
		</g>
		<g>
			<path style="fill:#E54B44;" d="M77.626,53.318c-1.837-1.971-4.119-3.438-6.626-4.332V55h5.894c0.398,0,0.759-0.236,0.917-0.601
				C77.969,54.034,77.896,53.61,77.626,53.318z"/>
		</g>
		<g>
			<path style="fill:#4A1410;" d="M26.197,57h-2v6h2c1.657,0,3-1.343,3-3S27.854,57,26.197,57z"/>
		</g>
		<g>
			<rect x="23.197" y="57" style="fill:#7D261E;" width="1" height="6"/>
		</g>
		<g>
			<path style="fill:#FF6C5E;" d="M53.754,48c-0.446,0-0.838,0.296-0.961,0.725l-1.429,5c-0.086,0.302-0.026,0.626,0.163,0.877
				C51.717,54.853,52.012,55,52.326,55h2.072l7-7H53.754z"/>
		</g>
	</g>
</g>
<g id="R-Red">
	<circle style="fill:#FABBAF;" cx="55" cy="55" r="55"/>
	<g>
		<g>
			<path style="fill:#4A1410;" d="M34,63c10,0,12,9,29,9c0-5,4-9,11-9s13,9,13,9c0-9.122-3-27-21.544-27H53.708
				c-1.636,0-3.106,0.996-3.714,2.515L47,55H31c-3.859,0-5,4-7,17C24.91,71.742,32.9,63,34,63z"/>
		</g>
		<path style="fill:#7D261E;" d="M34,63c10,0,12,9,29,9c0-5,4-9,11-9c0.245,0,0.486,0.035,0.729,0.057
			C70.956,61.038,59.778,59,30,59c-1.278,0-2.395,0.071-3.395,0.189c-0.761,2.188-1.404,5.365-2.129,9.808
			C26.021,65.998,29.002,63,34,63z"/>
		<g>
			<path style="fill:#FFFFFF;" d="M23.224,72.677c-0.095,0.579,0.07,1.171,0.451,1.619C24.055,74.743,24.613,75,25.2,75H84
				c1.657,0,3-1.343,3-3c0,0-6-9-13-9s-11,4-11,9c-17,0-19-9-29-9C26.819,63,23.795,69.188,23.224,72.677z"/>
		</g>
		<g>
			<circle style="fill:#4A1410;" cx="34" cy="73" r="6"/>
		</g>
		<g>
			<circle style="fill:#FFD7D4;" cx="34" cy="73" r="2"/>
		</g>
		<g>
			<circle style="fill:#4A1410;" cx="73" cy="73" r="6"/>
		</g>
		<g>
			<circle style="fill:#FFD7D4;" cx="73" cy="73" r="2"/>
		</g>
		<g>
			<path style="fill:#E54B44;" d="M67,48.083C66.47,48.032,65.935,48,65.397,48H53.754c-0.446,0-0.839,0.296-0.961,0.726l-1.429,5
				c-0.086,0.301-0.026,0.626,0.163,0.877c0.19,0.25,0.484,0.397,0.799,0.397H67V48.083z"/>
		</g>
		<g>
			<path style="fill:#E54B44;" d="M77.626,53.318c-1.837-1.971-4.119-3.438-6.626-4.332V55h5.894c0.398,0,0.759-0.236,0.917-0.601
				C77.97,54.034,77.896,53.61,77.626,53.318z"/>
		</g>
		<g>
			<path style="fill:#4A1410;" d="M26.197,57h-2v6h2c1.657,0,3-1.343,3-3S27.854,57,26.197,57z"/>
		</g>
		<g>
			<rect x="23.197" y="57" style="fill:#7D261E;" width="1" height="6"/>
		</g>
		<g>
			<path style="fill:#FF6C5E;" d="M53.754,48c-0.446,0-0.838,0.296-0.961,0.725l-1.429,5c-0.086,0.302-0.026,0.626,0.163,0.877
				c0.19,0.25,0.484,0.398,0.799,0.398h2.072l7-7H53.754z"/>
		</g>
	</g>
</g>
<g id="Yellow" style="display:none;">
	<g style="display:inline;">
		<g>
			<path style="fill:#3D320C;" d="M34,63c10,0,12,9,29,9c0-5,4-9,11-9s13,9,13,9c0-9.122-3-27-21.544-27H53.708
				c-1.636,0-3.106,0.996-3.714,2.515L47,55H31c-3.859,0-5,4-7,17C24.91,71.742,32.9,63,34,63z"/>
		</g>
		<path style="fill:#66510D;" d="M34,63c10,0,12,9,29,9c0-5,4-9,11-9c0.245,0,0.486,0.035,0.729,0.057
			C70.956,61.038,59.778,59,30,59c-1.278,0-2.395,0.071-3.395,0.189c-0.761,2.188-1.404,5.365-2.129,9.808
			C26.021,65.998,29.002,63,34,63z"/>
		<g>
			<path style="fill:#FFFFFF;" d="M23.223,72.677c-0.095,0.579,0.07,1.171,0.451,1.619C24.055,74.743,24.613,75,25.2,75H84
				c1.657,0,3-1.343,3-3c0,0-6-9-13-9s-11,4-11,9c-17,0-19-9-29-9C26.819,63,23.795,69.188,23.223,72.677z"/>
		</g>
		<g>
			<circle style="fill:#3D320C;" cx="34" cy="73" r="6"/>
		</g>
		<g>
			<circle style="fill:#FFE9A1;" cx="34" cy="73" r="2"/>
		</g>
		<g>
			<circle style="fill:#3D320C;" cx="73" cy="73" r="6"/>
		</g>
		<g>
			<circle style="fill:#FFE9A1;" cx="73" cy="73" r="2"/>
		</g>
		<g>
			<path style="fill:#FA9200;" d="M67,48.083C66.469,48.032,65.935,48,65.397,48H53.754c-0.446,0-0.839,0.296-0.961,0.726l-1.429,5
				c-0.086,0.301-0.026,0.626,0.163,0.877C51.717,54.853,52.012,55,52.326,55H67V48.083z"/>
		</g>
		<g>
			<path style="fill:#FA9200;" d="M77.626,53.318c-1.837-1.971-4.119-3.438-6.626-4.332V55h5.894c0.398,0,0.759-0.236,0.917-0.601
				C77.969,54.034,77.896,53.61,77.626,53.318z"/>
		</g>
		<g>
			<path style="fill:#3D320C;" d="M26.197,57h-2v6h2c1.657,0,3-1.343,3-3S27.854,57,26.197,57z"/>
		</g>
		<g>
			<rect x="23.197" y="57" style="fill:#66510D;" width="1" height="6"/>
		</g>
		<g>
			<path style="fill:#FFAA00;" d="M53.754,48c-0.446,0-0.838,0.296-0.961,0.725l-1.429,5c-0.086,0.302-0.026,0.626,0.163,0.877
				C51.717,54.853,52.012,55,52.326,55h2.072l7-7H53.754z"/>
		</g>
	</g>
</g>
<g id="R-Yellow" style="display:none;">
	<circle style="display:inline;fill:#FFD75E;" cx="55" cy="55" r="55"/>
	<g style="display:inline;">
		<g>
			<path style="fill:#3D320C;" d="M34,63c10,0,12,9,29,9c0-5,4-9,11-9s13,9,13,9c0-9.122-3-27-21.544-27H53.708
				c-1.636,0-3.106,0.996-3.714,2.515L47,55H31c-3.859,0-5,4-7,17C24.91,71.742,32.9,63,34,63z"/>
		</g>
		<path style="fill:#66510D;" d="M34,63c10,0,12,9,29,9c0-5,4-9,11-9c0.245,0,0.486,0.035,0.729,0.057
			C70.956,61.038,59.778,59,30,59c-1.278,0-2.395,0.071-3.395,0.189c-0.761,2.188-1.404,5.365-2.129,9.808
			C26.021,65.998,29.002,63,34,63z"/>
		<g>
			<path style="fill:#FFFFFF;" d="M23.224,72.677c-0.095,0.579,0.07,1.171,0.451,1.619C24.055,74.743,24.613,75,25.2,75H84
				c1.657,0,3-1.343,3-3c0,0-6-9-13-9s-11,4-11,9c-17,0-19-9-29-9C26.819,63,23.795,69.188,23.224,72.677z"/>
		</g>
		<g>
			<circle style="fill:#3D320C;" cx="34" cy="73" r="6"/>
		</g>
		<g>
			<circle style="fill:#FFE9A1;" cx="34" cy="73" r="2"/>
		</g>
		<g>
			<circle style="fill:#3D320C;" cx="73" cy="73" r="6"/>
		</g>
		<g>
			<circle style="fill:#FFE9A1;" cx="73" cy="73" r="2"/>
		</g>
		<g>
			<path style="fill:#FA9200;" d="M67,48.083C66.47,48.032,65.936,48,65.397,48H53.754c-0.446,0-0.839,0.296-0.961,0.726l-1.429,5
				c-0.086,0.301-0.026,0.626,0.163,0.877C51.717,54.853,52.012,55,52.326,55H67V48.083z"/>
		</g>
		<g>
			<path style="fill:#FA9200;" d="M77.626,53.318c-1.837-1.971-4.119-3.438-6.626-4.332V55h5.894c0.398,0,0.759-0.236,0.917-0.601
				C77.97,54.034,77.896,53.61,77.626,53.318z"/>
		</g>
		<g>
			<path style="fill:#3D320C;" d="M26.197,57h-2v6h2c1.657,0,3-1.343,3-3S27.854,57,26.197,57z"/>
		</g>
		<g>
			<rect x="23.197" y="57" style="fill:#66510D;" width="1" height="6"/>
		</g>
		<g>
			<path style="fill:#FFAA00;" d="M53.754,48c-0.446,0-0.838,0.296-0.961,0.725l-1.429,5c-0.086,0.302-0.026,0.626,0.163,0.877
				C51.717,54.853,52.012,55,52.326,55h2.072l7-7H53.754z"/>
		</g>
	</g>
</g>
</svg>
